<svg width="14" height="14" viewBox="0 0 14 14" fill="none" xmlns="http://www.w3.org/2000/svg">
<path d="M8.16667 5.25V2.91667C8.16667 2.45254 7.9823 2.00742 7.65411 1.67923C7.32592 1.35105 6.8808 1.16667 6.41667 1.16667L4.08334 6.41667V12.8333H10.6633C10.9447 12.8365 11.2177 12.7379 11.4321 12.5557C11.6465 12.3734 11.7878 12.1199 11.83 11.8417L12.635 6.59167C12.6604 6.42446 12.6491 6.25374 12.602 6.09132C12.5548 5.9289 12.4729 5.77868 12.3619 5.65105C12.2509 5.52343 12.1136 5.42147 11.9593 5.35222C11.805 5.28297 11.6375 5.24809 11.4683 5.25H8.16667ZM4.08334 12.8333H2.33334C2.02392 12.8333 1.72717 12.7104 1.50838 12.4916C1.28959 12.2728 1.16667 11.9761 1.16667 11.6667V7.58334C1.16667 7.27392 1.28959 6.97717 1.50838 6.75838C1.72717 6.53959 2.02392 6.41667 2.33334 6.41667H4.08334" fill="white"/>
<path d="M4.08334 12.8333H2.33334C2.02392 12.8333 1.72717 12.7104 1.50838 12.4916C1.28959 12.2728 1.16667 11.9761 1.16667 11.6667V7.58334C1.16667 7.27392 1.28959 6.97717 1.50838 6.75838C1.72717 6.53959 2.02392 6.41667 2.33334 6.41667H4.08334M8.16667 5.25V2.91667C8.16667 2.45254 7.9823 2.00742 7.65411 1.67923C7.32592 1.35105 6.8808 1.16667 6.41667 1.16667L4.08334 6.41667V12.8333H10.6633C10.9447 12.8365 11.2177 12.7379 11.4321 12.5557C11.6465 12.3734 11.7878 12.1199 11.83 11.8417L12.635 6.59167C12.6604 6.42446 12.6491 6.25374 12.602 6.09132C12.5548 5.9289 12.4729 5.77868 12.3619 5.65105C12.2509 5.52343 12.1136 5.42147 11.9593 5.35222C11.805 5.28297 11.6375 5.24809 11.4683 5.25H8.16667Z" stroke="black" stroke-width="2" stroke-linecap="round" stroke-linejoin="round"/>
</svg>
