<svg width="18" height="18" viewBox="0 0 18 18" fill="none" xmlns="http://www.w3.org/2000/svg">
<path d="M8 0H10V1.08296C12.8377 1.55904 15 4.027 15 7V9.5C15 9.80356 15.2183 10.1747 15.6585 10.5599C15.8576 10.7341 16.0615 10.8748 16.2175 10.9723C16.2945 11.0204 16.3572 11.0564 16.3984 11.0792C16.4189 11.0906 16.4339 11.0985 16.4424 11.103L16.4498 11.1068L17 11.382V15H1V11.382L1.54993 11.107L1.55763 11.103C1.56612 11.0985 1.5811 11.0906 1.60162 11.0792C1.6428 11.0564 1.70552 11.0204 1.7825 10.9723C1.93854 10.8748 2.14238 10.7341 2.3415 10.5599C2.78175 10.1747 3 9.80356 3 9.5V7C3 4.027 5.16229 1.55904 8 1.08296V0Z" fill="#c89126"/>
<path d="M9 18C10.1046 18 11 17.1046 11 16H7C7 17.1046 7.89543 18 9 18Z" fill="#c89126"/>
</svg>
