<svg width="14" height="14" viewBox="0 0 14 14" fill="none" xmlns="http://www.w3.org/2000/svg">
<g clip-path="url(#clip0_1_268)">
<path d="M5.83334 8.75V11.0833C5.83334 11.5475 6.01771 11.9926 6.3459 12.3208C6.67409 12.649 7.11921 12.8333 7.58334 12.8333L9.91667 7.58334V1.16667H3.33667C3.05531 1.16349 2.78228 1.2621 2.56789 1.44433C2.3535 1.62656 2.21219 1.88014 2.17 2.15834L1.365 7.40834C1.33962 7.57554 1.3509 7.74627 1.39805 7.90869C1.44521 8.07111 1.52711 8.22133 1.63809 8.34895C1.74906 8.47657 1.88646 8.57854 2.04075 8.64779C2.19505 8.71704 2.36256 8.75192 2.53167 8.75H5.83334ZM9.91667 1.16667H11.4742C11.8043 1.16083 12.1251 1.27641 12.3757 1.49148C12.6262 1.70655 12.7891 2.00612 12.8333 2.33334V6.41667C12.7891 6.74388 12.6262 7.04346 12.3757 7.25852C12.1251 7.47359 11.8043 7.58917 11.4742 7.58334H9.91667" fill="black"/>
<path d="M9.91667 1.16667H11.4742C11.8043 1.16083 12.1251 1.27641 12.3757 1.49148C12.6262 1.70655 12.7891 2.00612 12.8333 2.33334V6.41667C12.7891 6.74388 12.6262 7.04346 12.3757 7.25852C12.1251 7.47359 11.8043 7.58917 11.4742 7.58334H9.91667M5.83334 8.75V11.0833C5.83334 11.5475 6.01771 11.9926 6.3459 12.3208C6.67409 12.649 7.11921 12.8333 7.58334 12.8333L9.91667 7.58334V1.16667H3.33667C3.05531 1.16349 2.78228 1.2621 2.56789 1.44433C2.3535 1.62656 2.21219 1.88014 2.17 2.15834L1.365 7.40834C1.33962 7.57554 1.3509 7.74627 1.39805 7.90869C1.44521 8.07111 1.52711 8.22133 1.63809 8.34895C1.74906 8.47657 1.88646 8.57854 2.04075 8.64779C2.19505 8.71704 2.36256 8.75192 2.53167 8.75H5.83334Z" stroke="black" stroke-width="2" stroke-linecap="round" stroke-linejoin="round"/>
</g>
<defs>
<clipPath id="clip0_1_268">
<rect width="14" height="14" fill="white"/>
</clipPath>
</defs>
</svg>
